<mxfile host="app.diagrams.net" modified="2023-11-16T02:47:47.235Z" agent="Mozilla/5.0 (Windows NT 10.0; Win64; x64) AppleWebKit/537.36 (KHTML, like Gecko) Chrome/119.0.0.0 Safari/537.36 Edg/119.0.0.0" version="22.1.1" etag="3_AAijR-_pX5KXFFKc2J" type="github">
  <diagram name="第 1 页" id="AQjhKH5q94hHRfKX0h9v">
    <mxGraphModel>
      <root>
        <mxCell id="0" />
        <mxCell id="1" parent="0" />
      </root>
    </mxGraphModel>
  </diagram>
</mxfile>
